<svg id="e0c86268-5041-4a04-8ac6-4eb6a19aa6ed" data-name="Layer 1" xmlns="http://www.w3.org/2000/svg" width="865.76" height="682.89" viewBox="0 0 865.76 682.89"><rect x="293.36" y="105.32" width="304.99" height="207" fill="#2f2e41"/><rect x="293.36" y="105.32" width="304.99" height="207" fill="#fff" opacity="0.5" style="isolation:isolate"/><rect x="296.61" y="109.22" width="298.49" height="199.21" fill="#f5f5f5"/><polygon points="318.58 386.58 382.05 386.61 390.84 429.4 327.04 429.41 318.58 386.58" fill="#2f2e41"/><polygon points="319.96 388.02 380.71 388.02 389.3 427.2 328.23 427.21 319.96 388.02" fill="#fff"/><g id="b3cc7aed-ae6a-4940-b232-c47c1c21d7a7" data-name="freepik--background-complete--inject-552"><path d="M426.94,435h-275a8.14,8.14,0,0,1-8.12-8.14V40.2a8.13,8.13,0,0,1,8.12-8.06h275a8.13,8.13,0,0,1,8.13,8.13h0V426.81A8.13,8.13,0,0,1,426.94,435Zm-275-402.53a7.78,7.78,0,0,0-7.76,7.78V426.81a7.78,7.78,0,0,0,7.76,7.78h275a7.8,7.8,0,0,0,7.78-7.78V40.2a7.8,7.8,0,0,0-7.78-7.78Z" fill="#ebebeb"/><path d="M735,435H460a8.15,8.15,0,0,1-8.13-8.14V40.2A8.14,8.14,0,0,1,460,32.14H735a8.14,8.14,0,0,1,8.11,8.06V426.81A8.14,8.14,0,0,1,735,435ZM460,32.42a7.8,7.8,0,0,0-7.78,7.78V426.81a7.8,7.8,0,0,0,7.78,7.78H735a7.79,7.79,0,0,0,7.78-7.78V40.2A7.8,7.8,0,0,0,735,32.42Z" fill="#ebebeb"/><path d="M636.48,171.44a17.7,17.7,0,0,1-7.12-6.66,19.58,19.58,0,0,1,0-19.48,17.82,17.82,0,0,1,7.12-6.68,21.9,21.9,0,0,1,10.27-2.39,22.36,22.36,0,0,1,9.34,1.85,17.46,17.46,0,0,1,6.78,5.34l-7.65,6.84a9.84,9.84,0,0,0-7.86-4.27,8,8,0,0,0-6.11,2.43,10.46,10.46,0,0,0,0,13.11,8,8,0,0,0,6.11,2.43,9.77,9.77,0,0,0,7.86-4.27l7.65,6.82a17,17,0,0,1-6.78,5.34,22.37,22.37,0,0,1-9.34,1.86A21.85,21.85,0,0,1,636.48,171.44Z" fill="#e0e0e0"/><path d="M692,159.41h-8.48v8.21h-9.26v-8.21h-8.47v-8.74h8.47v-8.21h9.26v8.21H692Z" fill="#e0e0e0"/><path d="M252.6,276.32a11,11,0,0,1-4.42-4.12,12.1,12.1,0,0,1,0-12,11.16,11.16,0,0,1,4.42-4.12,13.57,13.57,0,0,1,6.32-1.42,13.8,13.8,0,0,1,5.7,1.14,10.48,10.48,0,0,1,4.17,3.29l-4.71,4.27a6,6,0,0,0-4.84-2.59,4.94,4.94,0,0,0-3.76,1.49,6.44,6.44,0,0,0,0,8.08,4.91,4.91,0,0,0,3.76,1.49,6,6,0,0,0,4.84-2.59l4.71,4.28a10.92,10.92,0,0,1-4.17,3.29,14.12,14.12,0,0,1-5.7,1.14A13.55,13.55,0,0,1,252.6,276.32Z" fill="#e0e0e0"/><path d="M286.78,268.9h-5.22V274h-5.7V268.9h-5.21v-5.39h5.21v-5.05h5.7v5.05h5.22Z" fill="#e0e0e0"/><path d="M463.28,78.94a9.6,9.6,0,0,1-3.89-3.61,10.59,10.59,0,0,1,0-10.56,9.71,9.71,0,0,1,3.89-3.63,11.94,11.94,0,0,1,5.57-1.3,12.28,12.28,0,0,1,5.07,1,9.48,9.48,0,0,1,3.69,2.85l-4.16,3.71a5.31,5.31,0,0,0-4.28-2.28,4.36,4.36,0,0,0-3.32,1.32,5.71,5.71,0,0,0,0,7.12,4.37,4.37,0,0,0,3.32,1.33,5.38,5.38,0,0,0,4.28-2.29l4.16,3.68a9.44,9.44,0,0,1-3.69,2.85,12.27,12.27,0,0,1-5.07,1A11.79,11.79,0,0,1,463.28,78.94Z" fill="#e0e0e0"/><path d="M481.76,79.7A12.5,12.5,0,0,1,478,78.27l2.12-4.82a13.51,13.51,0,0,0,3.12,1.29,12.07,12.07,0,0,0,3.32.49A5.38,5.38,0,0,0,488.5,75a.88.88,0,0,0,.59-.8c0-.41-.26-.71-.77-.92a17.36,17.36,0,0,0-2.52-.67,28.7,28.7,0,0,1-3.77-1,6.38,6.38,0,0,1-2.62-1.78,4.92,4.92,0,0,1-1.11-3.37,5.78,5.78,0,0,1,1-3.34,6.75,6.75,0,0,1,3.08-2.37,12.83,12.83,0,0,1,5-.87,17.94,17.94,0,0,1,3.93.44,12.26,12.26,0,0,1,3.42,1.27l-2,4.77a12.09,12.09,0,0,0-5.43-1.42c-1.69,0-2.53.41-2.53,1.24,0,.38.24.67.74.87a16.48,16.48,0,0,0,2.49.62,26.94,26.94,0,0,1,3.76,1,6.59,6.59,0,0,1,2.67,1.77,4.85,4.85,0,0,1,1.12,3.35,5.69,5.69,0,0,1-1,3.33,7,7,0,0,1-3.08,2.36,12.42,12.42,0,0,1-5,.87A19.89,19.89,0,0,1,481.76,79.7Z" fill="#e0e0e0"/><path d="M500.08,79.7a12.4,12.4,0,0,1-3.77-1.43l2.11-4.82a13.41,13.41,0,0,0,3.13,1.29,11.87,11.87,0,0,0,3.3.49A5.35,5.35,0,0,0,506.8,75a.85.85,0,0,0,.6-.8c0-.41-.25-.71-.77-.92a16.7,16.7,0,0,0-2.52-.67,30.35,30.35,0,0,1-3.77-1,6.48,6.48,0,0,1-2.62-1.78,4.87,4.87,0,0,1-1.11-3.37,5.65,5.65,0,0,1,1-3.34,6.77,6.77,0,0,1,3.07-2.37,12.81,12.81,0,0,1,5-.87,18,18,0,0,1,3.95.44,12.26,12.26,0,0,1,3.42,1.27l-2,4.77a12.17,12.17,0,0,0-5.44-1.42c-1.7,0-2.54.41-2.54,1.24,0,.38.26.67.76.87a15.94,15.94,0,0,0,2.47.62,25.3,25.3,0,0,1,3.76,1,6.43,6.43,0,0,1,2.67,1.77,4.75,4.75,0,0,1,1.12,3.35,5.67,5.67,0,0,1-1,3.33,7,7,0,0,1-3.08,2.36,12.5,12.5,0,0,1-5,.87A19.74,19.74,0,0,1,500.08,79.7Z" fill="#e0e0e0"/><path d="M307.42,326.85a5,5,0,0,1-1.95-1.81,5.33,5.33,0,0,1,0-5.28,4.79,4.79,0,0,1,1.95-1.81,5.77,5.77,0,0,1,2.85-.65,6.15,6.15,0,0,1,2.54.49,4.75,4.75,0,0,1,1.83,1.43l-2.07,1.85a2.69,2.69,0,0,0-2.14-1.14,2.14,2.14,0,0,0-1.65.66,2.83,2.83,0,0,0,0,3.56,2.16,2.16,0,0,0,1.65.65,2.64,2.64,0,0,0,2.14-1.14l2.07,1.85a4.57,4.57,0,0,1-1.83,1.43,6.95,6.95,0,0,1-5.39-.09Z" fill="#e0e0e0"/><path d="M316.67,327.22a6.72,6.72,0,0,1-1.9-.72l1.07-2.37a6.76,6.76,0,0,0,1.55.64,6.37,6.37,0,0,0,1.67.25,2.65,2.65,0,0,0,1-.13.45.45,0,0,0,.3-.4c0-.2-.13-.36-.39-.46a10.62,10.62,0,0,0-1.26-.34,14.85,14.85,0,0,1-1.88-.5,3.13,3.13,0,0,1-1.31-.89,2.42,2.42,0,0,1-.56-1.69,2.83,2.83,0,0,1,.51-1.66,3.5,3.5,0,0,1,1.54-1.2,6.63,6.63,0,0,1,2.49-.43,9.39,9.39,0,0,1,2,.22,5.73,5.73,0,0,1,1.7.64l-1,2.38a6,6,0,0,0-2.73-.73c-.84,0-1.26.21-1.26.61s.13.35.38.45a9,9,0,0,0,1.24.31,12,12,0,0,1,1.88.48,3.16,3.16,0,0,1,1.33.89,2.39,2.39,0,0,1,.57,1.66,2.92,2.92,0,0,1-.52,1.67,3.49,3.49,0,0,1-1.55,1.18,6,6,0,0,1-2.48.44A9.37,9.37,0,0,1,316.67,327.22Z" fill="#e0e0e0"/><path d="M325.81,327.22a6.77,6.77,0,0,1-1.89-.72l1.07-2.4a6.79,6.79,0,0,0,1.55.65,6.66,6.66,0,0,0,1.66.24,2.65,2.65,0,0,0,1-.13.43.43,0,0,0,.3-.4.51.51,0,0,0-.38-.46,11.33,11.33,0,0,0-1.27-.34,13.71,13.71,0,0,1-1.88-.5,3.26,3.26,0,0,1-1.31-.89,2.44,2.44,0,0,1-.56-1.68,2.92,2.92,0,0,1,.52-1.67,3.41,3.41,0,0,1,1.53-1.2,6.48,6.48,0,0,1,2.5-.42,8.59,8.59,0,0,1,2,.21,5.79,5.79,0,0,1,1.71.64l-1,2.38a6.12,6.12,0,0,0-2.65-.67c-.84,0-1.27.21-1.27.61s.13.34.37.44a9,9,0,0,0,1.24.32,12.29,12.29,0,0,1,1.9.48,3.37,3.37,0,0,1,1.32.88,2.43,2.43,0,0,1,.57,1.67,2.86,2.86,0,0,1-.53,1.67,3.43,3.43,0,0,1-1.53,1.18,6.05,6.05,0,0,1-2.48.44A10,10,0,0,1,325.81,327.22Z" fill="#e0e0e0"/><path d="M386.06,70.6a4.32,4.32,0,0,1,1.9,1.56,4.27,4.27,0,0,1-1.11,5.94,4,4,0,0,1-.79.43,7.12,7.12,0,0,1-2.85.54h-1.72V82h-4V70h5.7A6.89,6.89,0,0,1,386.06,70.6Zm-1.85,5a1.28,1.28,0,0,0,.41-1,1.25,1.25,0,0,0-.41-1,1.74,1.74,0,0,0-1.22-.37h-1.43V76H383A1.81,1.81,0,0,0,384.21,75.6Z" fill="#e0e0e0"/><path d="M401.73,70V82h-4V77.61H394V82h-4.06V70h4V74.3h3.73V70Z" fill="#e0e0e0"/><path d="M412.33,70.6a4.17,4.17,0,0,1,1.89,1.56,4.63,4.63,0,0,1,0,4.79,4.28,4.28,0,0,1-1.89,1.58,7.19,7.19,0,0,1-2.85.54h-1.77V82h-4V70h5.7A6.81,6.81,0,0,1,412.33,70.6Zm-1.91,5a1.35,1.35,0,0,0,.41-1,1.33,1.33,0,0,0-.41-1,1.74,1.74,0,0,0-1.24-.37h-1.43V76h1.43a1.86,1.86,0,0,0,1.24-.41Z" fill="#e0e0e0"/><path d="M546.66,342.51V360.8h-6.17V354h-5.7v6.74h-6.15V342.51h6.17V349h5.69v-6.48Z" fill="#e0e0e0"/><path d="M560,360.3a7.5,7.5,0,0,1-3.64.75,6.61,6.61,0,0,1-4.61-1.42,5.46,5.46,0,0,1-1.62-4.28v-3.66h-2v-4.27h2v-4H556v4h2.92v4.27H556v3.61a1.45,1.45,0,0,0,.34,1,1.15,1.15,0,0,0,.89.37,2.31,2.31,0,0,0,1.34-.4Z" fill="#e0e0e0"/><path d="M584.5,347.83a6.66,6.66,0,0,1,1.56,4.82v8.15h-5.9v-7.13c0-1.63-.53-2.45-1.6-2.45a1.63,1.63,0,0,0-1.34.63,3.14,3.14,0,0,0-.51,2v7H570.8v-7.12c0-1.64-.54-2.45-1.59-2.45a1.66,1.66,0,0,0-1.36.62,3.23,3.23,0,0,0-.5,2v7h-5.91V346.58h5.61v1.33a5.56,5.56,0,0,1,4.06-1.59,6.18,6.18,0,0,1,2.58.53,4.4,4.4,0,0,1,1.88,1.64,5.63,5.63,0,0,1,2.1-1.61,6.36,6.36,0,0,1,2.69-.56A5.56,5.56,0,0,1,584.5,347.83Z" fill="#e0e0e0"/><path d="M588.62,341.41h5.9V360.8h-5.9Z" fill="#e0e0e0"/><path d="M243.91,140V151.7h-4v-4.27h-3.66v4.27h-4V140h4v4.16H240V140Z" fill="#e0e0e0"/><path d="M252.49,151.39a4.74,4.74,0,0,1-2.34.48,4.4,4.4,0,0,1-3-.92,3.69,3.69,0,0,1-1-2.85v-2.35h-1.25V143h1.25v-2.58h3.81V143h1.88v2.78h-1.88v2.32a.92.92,0,0,0,.21.66.77.77,0,0,0,.57.23,1.44,1.44,0,0,0,.85-.25Z" fill="#e0e0e0"/><path d="M268.28,143.37a4.25,4.25,0,0,1,1,3.09v5.24h-3.8v-4.59c0-1.05-.35-1.58-1-1.58a1.09,1.09,0,0,0-.87.42,2,2,0,0,0-.33,1.26v4.49h-3.78v-4.59c0-1.05-.35-1.58-1-1.58a1.07,1.07,0,0,0-.87.42,2,2,0,0,0-.33,1.26v4.49h-3.8v-9.19h3.62v.86a3.52,3.52,0,0,1,2.6-1,4,4,0,0,1,1.67.34,3.1,3.1,0,0,1,1.21,1.06,3.86,3.86,0,0,1,1.34-1,4.19,4.19,0,0,1,1.74-.37A3.58,3.58,0,0,1,268.28,143.37Z" fill="#e0e0e0"/><path d="M270.92,139.24h3.8V151.7h-3.8Z" fill="#e0e0e0"/></g><rect x="279.18" y="308.21" width="328.23" height="5.5" fill="#2f2e41"/><rect x="279.18" y="308.21" width="328.23" height="5.5" fill="#fff" opacity="0.3" style="isolation:isolate"/><path d="M391.86,161.67a8.25,8.25,0,0,1-3.25-3.06,9,9,0,0,1,0-8.86,8.25,8.25,0,0,1,3.25-3.06,10.52,10.52,0,0,1,8.73-.29,7.79,7.79,0,0,1,3,2.31l-3,2.69a4.87,4.87,0,0,0-3.89-1.94,4.94,4.94,0,0,0-2.41.59,4.05,4.05,0,0,0-1.59,1.74,5.59,5.59,0,0,0,0,4.92,4.13,4.13,0,0,0,1.62,1.67,5,5,0,0,0,6.3-1.35l3,2.69a7.79,7.79,0,0,1-3,2.31,10.67,10.67,0,0,1-8.73-.29Z" fill="#8595a8"/><path d="M409,161.66a8.42,8.42,0,0,1-3.27-3.08,8.14,8.14,0,0,1-1.19-4.4,8.41,8.41,0,0,1,1.19-4.42A8.58,8.58,0,0,1,409,146.7a10.55,10.55,0,0,1,9.42,0,8.58,8.58,0,0,1,3.27,3.06,8.31,8.31,0,0,1,1.18,4.42,8.22,8.22,0,0,1-1.18,4.4,8.42,8.42,0,0,1-3.27,3.08A10.68,10.68,0,0,1,409,161.66Zm7-3.35a4.31,4.31,0,0,0,1.61-1.67,5.49,5.49,0,0,0,0-4.93,4.28,4.28,0,0,0-1.61-1.66,4.66,4.66,0,0,0-4.52,0,4.21,4.21,0,0,0-1.55,1.74,5.46,5.46,0,0,0,0,4.92,4.24,4.24,0,0,0,1.61,1.67,4.64,4.64,0,0,0,4.51,0Z" fill="#8595a8"/><path d="M425.29,145.93h7.8a10.87,10.87,0,0,1,4.8,1,7.72,7.72,0,0,1,3.27,2.85,8.81,8.81,0,0,1,0,8.72,7.72,7.72,0,0,1-3.27,2.85,10.87,10.87,0,0,1-4.8,1h-7.8Zm7.6,12.82a4.69,4.69,0,0,0,3.41-1.21,4.9,4.9,0,0,0,0-6.64,4.73,4.73,0,0,0-3.41-1.21H430v9.06Z" fill="#8595a8"/><path d="M444.76,145.93h4.67v16.5h-4.67Z" fill="#8595a8"/><path d="M468.46,145.93v16.5h-3.84l-7.3-8.79v8.79h-4.57v-16.5h3.85l7.27,8.79v-8.79Z" fill="#8595a8"/><path d="M482.82,153.82h4.11v6.84a10.31,10.31,0,0,1-3.24,1.55,12.71,12.71,0,0,1-3.68.54,9.86,9.86,0,0,1-4.67-1.08A8.66,8.66,0,0,1,472,149.88l.07-.13a8.12,8.12,0,0,1,3.28-3.06,10.09,10.09,0,0,1,4.73-1.1,10.79,10.79,0,0,1,4.16.78,8.07,8.07,0,0,1,3.06,2.24l-3,2.69a5.26,5.26,0,0,0-4-1.84,4.67,4.67,0,0,0-3.42,1.29,4.54,4.54,0,0,0-1.29,3.43,4.9,4.9,0,0,0,.58,2.43,4.11,4.11,0,0,0,1.65,1.68,4.85,4.85,0,0,0,2.44.6,5.92,5.92,0,0,0,2.52-.54Z" fill="#8595a8"/><g opacity="0.2"><path d="M391.86,161.67a8.25,8.25,0,0,1-3.25-3.06,9,9,0,0,1,0-8.86,8.25,8.25,0,0,1,3.25-3.06,10.52,10.52,0,0,1,8.73-.29,7.79,7.79,0,0,1,3,2.31l-3,2.69a5,5,0,0,0-6.3-1.35,4.11,4.11,0,0,0-1.59,1.74,5.62,5.62,0,0,0,0,4.93,4.17,4.17,0,0,0,1.62,1.66,4.94,4.94,0,0,0,2.41.59,4.87,4.87,0,0,0,3.89-1.94l3,2.69a7.79,7.79,0,0,1-3,2.31,10.67,10.67,0,0,1-8.73-.29Z" fill="#fff"/><path d="M409,161.66a8.42,8.42,0,0,1-3.27-3.08,8.14,8.14,0,0,1-1.19-4.4,8.41,8.41,0,0,1,1.19-4.42A8.58,8.58,0,0,1,409,146.7a10.55,10.55,0,0,1,9.42,0,8.58,8.58,0,0,1,3.27,3.06,8.31,8.31,0,0,1,1.18,4.42,8.22,8.22,0,0,1-1.18,4.4,8.42,8.42,0,0,1-3.27,3.08A10.68,10.68,0,0,1,409,161.66Zm7-3.35a4.31,4.31,0,0,0,1.61-1.67,5.46,5.46,0,0,0,0-4.92,4.31,4.31,0,0,0-1.61-1.67,4.66,4.66,0,0,0-4.52,0,4.21,4.21,0,0,0-1.55,1.74,5.49,5.49,0,0,0,0,4.93,4.28,4.28,0,0,0,1.61,1.66,4.64,4.64,0,0,0,4.51,0Z" fill="#fff"/><path d="M425.29,145.93h7.8a10.87,10.87,0,0,1,4.8,1,7.72,7.72,0,0,1,3.27,2.85,8.81,8.81,0,0,1,0,8.72,7.72,7.72,0,0,1-3.27,2.85,10.74,10.74,0,0,1-4.8,1h-7.8Zm7.6,12.82a4.69,4.69,0,0,0,3.41-1.21,4.9,4.9,0,0,0,0-6.64,4.73,4.73,0,0,0-3.41-1.21H430v9.06Z" fill="#fff"/><path d="M444.76,145.93h4.67v16.5h-4.67Z" fill="#fff"/><path d="M468.46,145.93v16.5h-3.84l-7.3-8.79v8.79h-4.57v-16.5h3.85l7.27,8.79v-8.79Z" fill="#fff"/><path d="M482.82,153.82h4.11v6.84a10.31,10.31,0,0,1-3.24,1.55,12.37,12.37,0,0,1-3.68.54,9.86,9.86,0,0,1-4.67-1.08A8.66,8.66,0,0,1,472,149.88l.07-.13a8.12,8.12,0,0,1,3.28-3.06,10.09,10.09,0,0,1,4.73-1.1,10.79,10.79,0,0,1,4.16.78,8.07,8.07,0,0,1,3.06,2.24l-3,2.69a5.21,5.21,0,0,0-4-1.83,4.62,4.62,0,0,0-3.42,1.28,4.56,4.56,0,0,0-1.29,3.43,4.94,4.94,0,0,0,.58,2.44,4.23,4.23,0,0,0,1.65,1.68,5,5,0,0,0,2.44.59,5.92,5.92,0,0,0,2.52-.54Z" fill="#fff"/></g><rect x="472.79" y="178.14" width="39.9" height="5.13" rx="2.51" fill="#8595a8"/><rect x="472.79" y="190.1" width="98.22" height="5.13" rx="2.51" fill="#8595a8"/><rect x="472.79" y="200.36" width="95.35" height="5.13" rx="2.51" fill="#8595a8"/><rect x="472.79" y="210.61" width="104.96" height="5.13" rx="2.51" fill="#8595a8"/><rect x="472.79" y="220.87" width="95.99" height="5.13" rx="2.51" fill="#8595a8"/><rect x="472.79" y="231.12" width="95.99" height="5.13" rx="2.51" fill="#8595a8"/><rect x="472.79" y="241.38" width="101.78" height="5.13" rx="2.51" fill="#8595a8"/><path d="M553.91,256.76H475.37a2.51,2.51,0,0,1-2.51-2.51h0a2.5,2.5,0,0,1,2.51-2.5H554a2.51,2.51,0,0,1,2.51,2.5h0a2.51,2.51,0,0,1-2.51,2.51Z" fill="#8595a8"/><g opacity="0.3"><rect x="472.79" y="178.14" width="39.9" height="5.13" rx="2.51" fill="#fff"/><rect x="472.79" y="190.1" width="98.22" height="5.13" rx="2.51" fill="#fff"/><rect x="472.79" y="200.36" width="95.35" height="5.13" rx="2.51" fill="#fff"/><rect x="472.79" y="210.61" width="104.96" height="5.13" rx="2.51" fill="#fff"/><rect x="472.79" y="220.87" width="95.99" height="5.13" rx="2.51" fill="#fff"/><rect x="472.79" y="231.12" width="95.99" height="5.13" rx="2.51" fill="#fff"/><rect x="472.79" y="241.38" width="101.78" height="5.13" rx="2.51" fill="#fff"/><path d="M553.91,256.76H475.37a2.51,2.51,0,0,1-2.51-2.51h0a2.5,2.5,0,0,1,2.51-2.5H554a2.51,2.51,0,0,1,2.51,2.5h0a2.51,2.51,0,0,1-2.51,2.51Z" fill="#fff"/></g><path d="M330.91,244c25.95-3.12,52.19-6,78.53-6.81,5.17-.16,10.35-.2,15.52,0v-2.54c-22.79-.57-45.65,1.64-68.08,4q-13,1.35-26,2.85C330.68,241.49,331.07,244,330.91,244Z" fill="#8595a8"/><path d="M343.37,248.94c16.43-3.23,33-6.22,49.7-7,3.28-.15,6.55-.21,9.83-.08V239.2c-14.37-.59-28.89,1.69-43.09,4.1q-8.22,1.42-16.44,3C343.23,246.32,343.47,248.93,343.37,248.94Z" fill="#8595a8"/><path d="M405.15,128.18,401.3,139h-3.7l-2-5.84L393.44,139h-3.67l-3.86-10.84h3.58l2.23,6.55,2.3-6.55h3.25l2.24,6.62,2.29-6.62Z" fill="#8595a8"/><path d="M408.31,138.48a5.5,5.5,0,0,1,0-9.77,7.34,7.34,0,0,1,6.31,0,5.36,5.36,0,0,1,2.19,2,5.5,5.5,0,0,1,.77,2.85,5.59,5.59,0,0,1-.77,2.85,5.46,5.46,0,0,1-2.19,2,7.12,7.12,0,0,1-6.3,0Zm4.79-3a2.71,2.71,0,0,0,.64-1.91,2.65,2.65,0,0,0-.64-1.88,2.32,2.32,0,0,0-3.29,0h0a2.7,2.7,0,0,0-.65,1.88,2.67,2.67,0,0,0,.65,1.91,2.32,2.32,0,0,0,3.28,0Z" fill="#8595a8"/><path d="M424.46,128.37a5.81,5.81,0,0,1,2.14-.37v3.42a6.32,6.32,0,0,0-.87,0,2.34,2.34,0,0,0-2.59,2.68V139h-3.81V128.13H423v1.29A3.48,3.48,0,0,1,424.46,128.37Z" fill="#8595a8"/><path d="M433.08,135.22,432,136.36V139h-3.8V124.18H432V132l3.89-3.78h4.5l-4.5,4.63,4.89,6.21h-4.6Z" fill="#8595a8"/><path d="M442.77,139a7.35,7.35,0,0,1-2.13-.82l1.14-2.6a6.71,6.71,0,0,0,1.77.74,8.62,8.62,0,0,0,2,.27,3.24,3.24,0,0,0,1.31-.2.61.61,0,0,0,.39-.54c0-.25-.16-.42-.47-.51a9.49,9.49,0,0,0-1.5-.3,14.11,14.11,0,0,1-2.21-.42,3.34,3.34,0,0,1-1.56-1,2.69,2.69,0,0,1-.66-2,3,3,0,0,1,.61-1.85,4.15,4.15,0,0,1,1.81-1.28,7.9,7.9,0,0,1,2.85-.47,11.57,11.57,0,0,1,2.35.24,6.71,6.71,0,0,1,1.94.69l-1.14,2.57a6.19,6.19,0,0,0-3.12-.79,3,3,0,0,0-1.32.2.61.61,0,0,0-.42.55c0,.26.14.43.46.53a11.38,11.38,0,0,0,1.52.31,16.82,16.82,0,0,1,2.22.46,3.31,3.31,0,0,1,1.53.95,2.74,2.74,0,0,1,.65,1.94,3,3,0,0,1-.62,1.82,4,4,0,0,1-1.83,1.27,7.9,7.9,0,0,1-2.85.47A12.06,12.06,0,0,1,442.77,139Z" fill="#8595a8"/><path d="M462.76,129.2a4.79,4.79,0,0,1,1.23,3.61V139H460.2v-5.59c0-1.42-.6-2.22-1.78-2.22a2.07,2.07,0,0,0-1.57.68,2.85,2.85,0,0,0-.58,1.93V139h-3.8V124.18h3.8v5a4,4,0,0,1,1.42-.88,5.33,5.33,0,0,1,1.81-.3A4.42,4.42,0,0,1,462.76,129.2Z" fill="#8595a8"/><path d="M468.83,138.48a5.49,5.49,0,0,1,0-9.77,7.36,7.36,0,0,1,6.31,0,5.28,5.28,0,0,1,3,4.83,5.34,5.34,0,0,1-3,4.9,7.21,7.21,0,0,1-6.31,0Zm4.79-3a2.71,2.71,0,0,0,.64-1.91,2.65,2.65,0,0,0-.64-1.88,2.32,2.32,0,0,0-3.27,0h0a2.65,2.65,0,0,0-.64,1.88,2.71,2.71,0,0,0,.64,1.91,2.3,2.3,0,0,0,3.26,0Z" fill="#8595a8"/><path d="M489.37,128.68a5.12,5.12,0,0,1,1.92,2,6.38,6.38,0,0,1,0,5.89,4.86,4.86,0,0,1-1.92,2,5.26,5.26,0,0,1-2.68.7,4.07,4.07,0,0,1-3-1.16v4.86h-3.8V128.18h3.63v1.07a3.91,3.91,0,0,1,3.2-1.25A5.34,5.34,0,0,1,489.37,128.68Zm-1.84,6.81a3.17,3.17,0,0,0,0-3.79,2.33,2.33,0,0,0-3.29,0,3.14,3.14,0,0,0,0,3.79,2.33,2.33,0,0,0,3.29,0Z" fill="#8595a8"/><g opacity="0.2"><path d="M405.35,128.25,401.5,139h-3.7l-2-5.84L393.64,139H390l-3.86-10.84h3.59l2.22,6.56,2.31-6.56h3.24l2.24,6.63,2.29-6.63Z" fill="#fff"/><path d="M408.51,138.55a5.51,5.51,0,0,1,0-9.77,7.34,7.34,0,0,1,6.31,0,5.3,5.3,0,0,1,2.19,2,5.4,5.4,0,0,1-2.19,7.69,7.12,7.12,0,0,1-6.3,0Zm4.79-3a2.72,2.72,0,0,0,.64-1.91,2.63,2.63,0,0,0-.64-1.88,2.33,2.33,0,0,0-3.29,0h0a2.63,2.63,0,0,0-.64,1.88,2.72,2.72,0,0,0,.64,1.91,2.32,2.32,0,0,0,3.28,0Z" fill="#fff"/><path d="M424.66,128.44a5.81,5.81,0,0,1,2.14-.37v3.41h-.87a2.68,2.68,0,0,0-1.91.66,2.71,2.71,0,0,0-.68,2V139h-3.8V128.19h3.61v1.3A3.54,3.54,0,0,1,424.66,128.44Z" fill="#fff"/><path d="M433.28,135.29l-1.12,1.14V139h-3.81V124.25h3.81V132l3.88-3.78h4.51L436,132.88l4.89,6.21h-4.6Z" fill="#fff"/><path d="M443,139a7.44,7.44,0,0,1-2.13-.81l1.14-2.6a6.71,6.71,0,0,0,1.77.74,8.62,8.62,0,0,0,2,.27,3.39,3.39,0,0,0,1.31-.2.61.61,0,0,0,.39-.54c0-.25-.16-.42-.47-.52a12.44,12.44,0,0,0-1.5-.3,14.08,14.08,0,0,1-2.21-.41,3.36,3.36,0,0,1-1.56-1,2.68,2.68,0,0,1-.66-1.95,3,3,0,0,1,.62-1.85,4,4,0,0,1,1.8-1.28,7.72,7.72,0,0,1,2.85-.47,11.57,11.57,0,0,1,2.35.24,6.41,6.41,0,0,1,1.94.68l-1.14,2.58a6.3,6.3,0,0,0-3.12-.8,3.12,3.12,0,0,0-1.32.2.64.64,0,0,0-.42.56c0,.25.15.43.46.53a11.38,11.38,0,0,0,1.52.31,16.94,16.94,0,0,1,2.23.45,3.44,3.44,0,0,1,1.52,1,2.68,2.68,0,0,1,.65,1.94,2.87,2.87,0,0,1-.62,1.82,4,4,0,0,1-1.83,1.27,8.3,8.3,0,0,1-2.84.47A12.09,12.09,0,0,1,443,139Z" fill="#fff"/><path d="M463,129.26a4.86,4.86,0,0,1,1.22,3.62V139H460.4v-5.58c0-1.42-.6-2.22-1.78-2.22a2.07,2.07,0,0,0-1.57.68,2.83,2.83,0,0,0-.58,1.92V139h-3.8V124.25h3.8v5a4,4,0,0,1,1.42-.88,5.13,5.13,0,0,1,1.81-.3A4.49,4.49,0,0,1,463,129.26Z" fill="#fff"/><path d="M469,138.55a5.5,5.5,0,0,1,0-9.77,6.76,6.76,0,0,1,3.15-.71,6.9,6.9,0,0,1,3.16.71,5.21,5.21,0,0,1,2.18,2,5.28,5.28,0,0,1,.79,2.85,5.34,5.34,0,0,1-3,4.9,7.27,7.27,0,0,1-6.31,0Zm4.79-3a2.72,2.72,0,0,0,.64-1.91,2.63,2.63,0,0,0-.64-1.88,2.3,2.3,0,0,0-3.26,0h0a2.63,2.63,0,0,0-.64,1.88,2.72,2.72,0,0,0,.64,1.91,2.32,2.32,0,0,0,3.27,0Z" fill="#fff"/><path d="M489.57,128.75a5,5,0,0,1,1.92,2,5.82,5.82,0,0,1,.72,2.94,5.73,5.73,0,0,1-.72,3,4.86,4.86,0,0,1-1.92,2,5.44,5.44,0,0,1-2.68.7,4.09,4.09,0,0,1-3-1.16V143h-3.8V128.25h3.63v1.07a3.91,3.91,0,0,1,3.2-1.25A5.22,5.22,0,0,1,489.57,128.75Zm-1.84,6.81a3.17,3.17,0,0,0,0-3.79,2.09,2.09,0,0,0-1.65-.68,2.13,2.13,0,0,0-1.64.68,3.14,3.14,0,0,0,0,3.79,2.33,2.33,0,0,0,3.29,0Z" fill="#fff"/></g><path d="M311.57,175.83l-2.49.91,2.49.91v.94L308,177.24v-1l3.56-1.43Z" fill="#407bff"/><path d="M314.29,173.07h1l-2.47,7.05h-1Z" fill="#8595a8"/><path d="M319,176.26v1l-3.56,1.35v-.94l2.49-.91-2.49-.91v-.93Z" fill="#407bff"/><g opacity="0.2"><path d="M318.5,186.53H308.32a1,1,0,0,1-.82-1.05.94.94,0,0,1,.82-.82H318.5a.94.94,0,0,1,.24,1.87Z"/><path d="M318.5,192.64H308.32a1,1,0,0,1-.82-1,.94.94,0,0,1,.82-.82H318.5a.94.94,0,0,1,.24,1.87A1,1,0,0,1,318.5,192.64Z"/><path d="M318.5,198.79H308.32a1,1,0,0,1-.82-1,1,1,0,0,1,.82-.82H318.5a1,1,0,0,1,1.05.82.93.93,0,0,1-.81,1A1,1,0,0,1,318.5,198.79Z"/><path d="M318.5,204.86H308.32a1,1,0,0,1-.82-1.05.94.94,0,0,1,.82-.82H318.5a.94.94,0,0,1,.24,1.87Z"/><path d="M318.5,211H308.32a.94.94,0,0,1,0-1.88H318.5a.94.94,0,0,1,0,1.88Z"/><path d="M318.5,217.08H308.32a.94.94,0,1,1,0-1.88H318.5a.94.94,0,0,1,0,1.88Z"/><path d="M318.5,223.19H308.32a.94.94,0,0,1,0-1.88H318.5a.94.94,0,0,1,0,1.88Z"/><path d="M318.5,229.3H308.32a.94.94,0,1,1,0-1.88H318.5a.94.94,0,0,1,0,1.88Z"/><path d="M318.5,235.4H308.32a1,1,0,0,1-.82-1.05.94.94,0,0,1,.82-.82H318.5a.94.94,0,0,1,.24,1.87Z"/></g><path d="M348,217h-20.9a.94.94,0,0,1,0-1.86H348a.94.94,0,0,1,0,1.86Z" fill="#8595a8"/><path d="M348,186.53h-20.9a1,1,0,0,1-.82-1.05.94.94,0,0,1,.82-.82H348a.93.93,0,0,1,.81,1.05A.94.94,0,0,1,348,186.53Z" fill="#8595a8"/><path d="M407.93,217H353.5a.94.94,0,1,1-.23-1.86h54.66a.94.94,0,0,1,.23,1.86Z" fill="#2f2e41"/><g opacity="0.2"><path d="M414.69,192.64H398.92a.94.94,0,0,1-1-.82.93.93,0,0,1,.81-1,.88.88,0,0,1,.23,0h15.77a.94.94,0,0,1,1.05.82,1,1,0,0,1-.82,1A.88.88,0,0,1,414.69,192.64Z" fill="#263238"/></g><path d="M362.2,222.25H329.87a.94.94,0,1,1,0-1.88H362.2a.94.94,0,0,1,0,1.88Z" fill="#2f2e41"/><path d="M400.7,222.25H368.86a.94.94,0,1,1,0-1.88H400.7a.94.94,0,0,1,0,1.88Z" fill="#8595a8"/><path d="M440.26,222.25H405.89a.94.94,0,1,1,0-1.88h34.37a.94.94,0,1,1,0,1.88Z" fill="#2f2e41"/><g opacity="0.2"><path d="M365.2,228.36H345.75a.94.94,0,1,1,0-1.88h19.42a.94.94,0,0,1,0,1.88Z" fill="#263238"/></g><path d="M392.67,228.36H371.49a.94.94,0,1,1,0-1.88h21.18a.94.94,0,0,1,0,1.88Z" fill="#2f2e41"/><g opacity="0.2"><path d="M431.83,228.36H397.49a.94.94,0,1,1,0-1.88h34.34a.94.94,0,0,1,0,1.88Z" fill="#263238"/></g><g opacity="0.2"><path d="M356,192.64h-26.1a1,1,0,0,1-1.05-.82.94.94,0,0,1,.82-1,.89.89,0,0,1,.23,0H356a.94.94,0,0,1,.23,1.87.88.88,0,0,1-.23,0Z" fill="#263238"/></g><path d="M359.24,198.79H329.87a.94.94,0,0,1-.23-1.87h29.6a1,1,0,0,1,.82,1.05A.93.93,0,0,1,359.24,198.79Z" fill="#8595a8"/><g opacity="0.2"><path d="M408.3,198.79H364a1,1,0,0,1-.82-1,1,1,0,0,1,.82-.82H408.3a.94.94,0,0,1,1,.82.93.93,0,0,1-.81,1A.88.88,0,0,1,408.3,198.79Z" fill="#263238"/></g><path d="M435,186.53H390.76a1,1,0,0,1-1.05-.82,1,1,0,0,1,.82-1.05H435a.94.94,0,1,1,.23,1.87Z" fill="#263238"/><path d="M440.26,198.79H413.67a.94.94,0,0,1-.24-1.87h26.83a1,1,0,0,1,.82,1.05.94.94,0,0,1-.82.82Z" fill="#2f2e41"/><g opacity="0.2"><path d="M356.05,204.86H339.23a.94.94,0,1,1,0-1.88h16.82a.94.94,0,0,1,0,1.88Z" fill="#263238"/></g><g opacity="0.2"><path d="M394,204.86H361.78a.94.94,0,1,1,0-1.88H394a.94.94,0,0,1,0,1.88Z" fill="#263238"/></g><g opacity="0.2"><path d="M385.48,186.53H353.22a1,1,0,0,1-.82-1.05.93.93,0,0,1,.82-.82h32.26a.94.94,0,0,1,.23,1.87Z" fill="#263238"/></g><path d="M431.83,204.86h-31.5a.94.94,0,1,1,0-1.88h31.5a.94.94,0,0,1,0,1.88Z" fill="#2f2e41"/><path d="M393.65,192.64H362.16a1,1,0,0,1-.82-1,.94.94,0,0,1,.82-.82h31.49a.94.94,0,1,1,.23,1.87A.88.88,0,0,1,393.65,192.64Z" fill="#2f2e41"/><path d="M368.41,211H348.6a.94.94,0,0,1,0-1.88h19.81a.94.94,0,0,1,0,1.88Z" fill="#2f2e41"/><g opacity="0.2"><path d="M391.33,211H372.49a.94.94,0,0,1,0-1.88h18.84a.94.94,0,0,1,0,1.88Z" fill="#263238"/></g><path d="M431.83,211H397.3a.94.94,0,0,1,0-1.88h34.53a.94.94,0,0,1,0,1.88Z" fill="#8595a8"/><g opacity="0.2"><path d="M372.82,234.47H348.6a.94.94,0,0,1,0-1.88h24.22a.94.94,0,0,1,0,1.88Z" fill="#263238"/></g><rect x="282.57" y="160.7" width="18.7" height="13.5" fill="#8595a8"/><rect x="196.69" y="166.17" width="104.58" height="75.7" fill="#8595a8"/><rect x="196.69" y="166.17" width="104.58" height="75.7" fill="#fff" opacity="0.7" style="isolation:isolate"/><rect x="196.69" y="166.17" width="14.57" height="75.7" opacity="0.1" style="isolation:isolate"/><rect x="196.69" y="166" width="104.58" height="7.08" fill="#8595a8"/><circle cx="296.77" cy="164.15" r="1.47" fill="#fff"/><circle cx="291.64" cy="164.15" r="1.47" fill="#fff"/><circle cx="286.51" cy="164.15" r="1.47" fill="#fff"/><path d="M228,200.73a4.85,4.85,0,0,1-1.94-1.43l2-2.41a2.92,2.92,0,0,0,2.27,1.43,1.58,1.58,0,0,0,1.24-.48,2.16,2.16,0,0,0,.43-1.43v-5.7h-4.53v-2.85h8.26v8.34a4.54,4.54,0,0,1-5.08,5.14A6.57,6.57,0,0,1,228,200.73Z" fill="#2f2e41"/><path d="M246.85,198.4h-5.59l-1,2.57h-3.8l5.82-13.21h3.68L251.77,201h-3.88Zm-1.1-2.74-1.7-4.28-1.69,4.28Z" fill="#2f2e41"/><path d="M265.48,187.76,259.78,201H256.1l-5.69-13.21h4.18l3.59,8.55,3.66-8.55Z" fill="#2f2e41"/><path d="M274.65,198.4h-5.58L268,201h-3.81l5.83-13.21h3.67L279.58,201h-3.89Zm-1.1-2.74-1.69-4.28-1.7,4.28Z" fill="#2f2e41"/><path d="M226.11,223.47a7.51,7.51,0,0,1-2.45-1.05l1.22-2.76a7.49,7.49,0,0,0,2.05,1,8.25,8.25,0,0,0,2.31.36c1.42,0,2.14-.36,2.14-1.09a.9.9,0,0,0-.62-.84,13,13,0,0,0-2-.57,19.06,19.06,0,0,1-2.49-.68,4.25,4.25,0,0,1-1.71-1.18,3.16,3.16,0,0,1-.77-2.15,3.77,3.77,0,0,1,.67-2.18,4.55,4.55,0,0,1,2-1.54,8.26,8.26,0,0,1,3.22-.56,11.13,11.13,0,0,1,2.57.29,8.22,8.22,0,0,1,2.22.85l-1.14,2.78a7.63,7.63,0,0,0-3.66-1.07,3.07,3.07,0,0,0-1.63.33,1,1,0,0,0-.51.86.86.86,0,0,0,.6.79,11.06,11.06,0,0,0,2,.54,17.64,17.64,0,0,1,2.49.69,4.54,4.54,0,0,1,1.73,1.17,3.15,3.15,0,0,1,.72,2.17,3.71,3.71,0,0,1-.67,2.16,4.35,4.35,0,0,1-2,1.53,7.78,7.78,0,0,1-3.2.59A12.17,12.17,0,0,1,226.11,223.47Z" fill="#2f2e41"/><path d="M238.75,223.09a4.89,4.89,0,0,1-2.07-1.88,5.19,5.19,0,0,1,2.09-7.34,6.91,6.91,0,0,1,3-.67,5.89,5.89,0,0,1,3,.76,4.08,4.08,0,0,1,1.78,2.06l-2.76,1.43a2.24,2.24,0,0,0-2-1.43,2.17,2.17,0,0,0-1.6.64,2.86,2.86,0,0,0,0,3.58,2.11,2.11,0,0,0,1.6.66,2.23,2.23,0,0,0,2-1.43l2.76,1.43a4.08,4.08,0,0,1-1.78,2.06,5.87,5.87,0,0,1-3,.74A6.7,6.7,0,0,1,238.75,223.09Z" fill="#2f2e41"/><path d="M252.78,213.56a5.8,5.8,0,0,1,2-.36v3.24a5.48,5.48,0,0,0-.81,0,2.23,2.23,0,0,0-2.46,2.52v4.7h-3.58V213.43h3.41v1.23A3.37,3.37,0,0,1,252.78,213.56Z" fill="#2f2e41"/><path d="M256.46,211.71a1.84,1.84,0,0,1-.6-1.43,1.74,1.74,0,0,1,.6-1.42,2.32,2.32,0,0,1,1.6-.56,2.4,2.4,0,0,1,1.58.53,1.66,1.66,0,0,1,.59,1.33,1.81,1.81,0,0,1-.59,1.42,2.31,2.31,0,0,1-1.58.56A2.39,2.39,0,0,1,256.46,211.71Zm-.2,1.66h3.58V223.6h-3.58Z" fill="#2f2e41"/><path d="M271.13,213.86a4.8,4.8,0,0,1,1.81,1.85,6.14,6.14,0,0,1,0,5.57,4.71,4.71,0,0,1-1.81,1.84,4.9,4.9,0,0,1-2.53.65,3.78,3.78,0,0,1-2.85-1.07v4.58h-3.59V213.39h3.42v1.07a3.66,3.66,0,0,1,3-1.2A5.08,5.08,0,0,1,271.13,213.86Zm-1.74,6.41a2.94,2.94,0,0,0,0-3.56,2.16,2.16,0,0,0-3.06-.05l0,.05a2.94,2.94,0,0,0,0,3.56,2.15,2.15,0,0,0,3.06,0Z" fill="#2f2e41"/><path d="M282.33,223.19a3.76,3.76,0,0,1-1.11.43,5.75,5.75,0,0,1-1.43.15,4.47,4.47,0,0,1-3.08-1,3.73,3.73,0,0,1-1.06-2.85v-3.43h-1.5v-2.68h1.5v-2.66h3.57v2.66h2.44v2.68h-2.35v3.39a1.2,1.2,0,0,0,.3.87,1.06,1.06,0,0,0,.78.3,1.89,1.89,0,0,0,1.1-.32Z" fill="#2f2e41"/><rect x="341.61" y="69.6" width="16.59" height="11.98" fill="#8595a8"/><rect x="265.45" y="74.44" width="92.75" height="67.14" fill="#8595a8"/><rect x="265.45" y="74.44" width="92.75" height="67.14" fill="#fff" opacity="0.7" style="isolation:isolate"/><rect x="265.45" y="74.44" width="12.92" height="67.14" opacity="0.1" style="isolation:isolate"/><rect x="265.45" y="74.3" width="92.75" height="6.28" fill="#8595a8"/><path d="M352.87,72.66a1.3,1.3,0,1,0,1.3-1.29A1.3,1.3,0,0,0,352.87,72.66Z" fill="#fff"/><path d="M348.36,72.66a1.31,1.31,0,1,0,1.32-1.29h0a1.29,1.29,0,0,0-1.31,1.28Z" fill="#fff"/><path d="M343.82,72.66A1.31,1.31,0,0,0,345.11,74a1.31,1.31,0,1,0,0-2.62h0a1.29,1.29,0,0,0-1.29,1.29Z" fill="#fff"/><path d="M295.63,104.07,290.35,106l5.28,1.87v2.42l-8.16-3v-2.55l8.16-3Z" fill="#2f2e41"/><path d="M306.14,103.61a4,4,0,0,1,1,3v5.15H304v-4.63c0-1.23-.5-1.84-1.43-1.84a1.68,1.68,0,0,0-1.29.53,2.29,2.29,0,0,0-.49,1.59v4.28h-3.2V99.38h3.15v4.15a3.35,3.35,0,0,1,1.21-.74,4.32,4.32,0,0,1,1.42-.24A3.64,3.64,0,0,1,306.14,103.61Z" fill="#2f2e41"/><path d="M318.4,108.06h-6.53a1.92,1.92,0,0,0,.77,1.07,2.72,2.72,0,0,0,1.42.37,3.39,3.39,0,0,0,1.13-.19,3.58,3.58,0,0,0,.94-.6l1.66,1.73a4.89,4.89,0,0,1-3.83,1.42,6,6,0,0,1-2.76-.6,4.29,4.29,0,0,1-1.85-1.65,4.54,4.54,0,0,1,1.46-6.26,2.69,2.69,0,0,1,.29-.16,5.7,5.7,0,0,1,5,0,4.17,4.17,0,0,1,1.72,1.61,4.52,4.52,0,0,1,.64,2.49S318.43,107.63,318.4,108.06Zm-6-2.85a2,2,0,0,0-.62,1.12h3.68a1.87,1.87,0,0,0-.63-1.12,1.78,1.78,0,0,0-1.21-.41,1.82,1.82,0,0,0-1.22.47Z" fill="#2f2e41"/><path d="M326.89,103.64a3.89,3.89,0,0,1,1.19,3.12v5h-2.94v-1.16a2.71,2.71,0,0,1-2.65,1.3,4.19,4.19,0,0,1-1.81-.36,2.79,2.79,0,0,1-1.15-1,2.63,2.63,0,0,1-.38-1.42,2.25,2.25,0,0,1,1-2,5.1,5.1,0,0,1,3-.7h1.8c0-1-.69-1.43-1.91-1.43a5.26,5.26,0,0,0-1.31.2,3.88,3.88,0,0,0-1.13.57l-1.05-2.13a5.79,5.79,0,0,1,1.81-.77,8.62,8.62,0,0,1,2.15-.27A5,5,0,0,1,326.89,103.64Zm-2.56,6a1.44,1.44,0,0,0,.6-.77v-.78h-1.35c-.93,0-1.43.3-1.43.91a.79.79,0,0,0,.31.65,1.32,1.32,0,0,0,.87.26,1.72,1.72,0,0,0,1.06-.27Z" fill="#2f2e41"/><path d="M339.74,99.45v12.3h-3v-.9a3.24,3.24,0,0,1-2.64,1,4.46,4.46,0,0,1-2.23-.57,4.15,4.15,0,0,1-1.6-1.62,5,5,0,0,1-.58-2.45,5,5,0,0,1,.58-2.45,4,4,0,0,1,1.6-1.61,4.36,4.36,0,0,1,2.23-.57,3.27,3.27,0,0,1,2.49.92V99.45Zm-3.63,9.38a2.28,2.28,0,0,0,.53-1.58,2.25,2.25,0,0,0-.52-1.57,1.8,1.8,0,0,0-1.42-.56,1.77,1.77,0,0,0-1.35.56,2.57,2.57,0,0,0,0,3.15,1.88,1.88,0,0,0,2.66,0l0,0Z" fill="#2f2e41"/><path d="M349.88,104.67v2.55l-8.17,3v-2.42L347,106l-5.28-1.88v-2.42Z" fill="#2f2e41"/><rect x="386.92" y="274.2" width="10.57" height="7.63" fill="#8595a8"/><rect x="338.37" y="277.29" width="59.13" height="42.8" fill="#8595a8"/><rect x="338.37" y="277.29" width="59.13" height="42.8" fill="#fff" opacity="0.7" style="isolation:isolate"/><rect x="338.37" y="277.29" width="8.23" height="42.8" opacity="0.1" style="isolation:isolate"/><rect x="338.37" y="277.21" width="59.13" height="4" fill="#8595a8"/><circle cx="394.94" cy="276.15" r="0.83" fill="#fff"/><circle cx="392.05" cy="276.15" r="0.83" fill="#fff"/><circle cx="389.16" cy="276.15" r="0.83" fill="#fff"/><path d="M361.24,296.44l-2.85,1,2.85,1v1.28L357,298.1v-1.35l4.27-1.6Z" fill="#2f2e41"/><path d="M362.37,294.36h2.85a3.82,3.82,0,0,1,1.79.38,2.62,2.62,0,0,1,1.21,1.07,3,3,0,0,1,.43,1.62,3.11,3.11,0,0,1-.43,1.63,2.92,2.92,0,0,1-1.21,1.07,4.22,4.22,0,0,1-1.79.37h-2.85Zm2.85,4.75a1.81,1.81,0,0,0,1.27-.45,1.64,1.64,0,0,0,.47-1.23,1.68,1.68,0,0,0-.47-1.24,1.85,1.85,0,0,0-1.27-.45h-1.1v3.37Z" fill="#2f2e41"/><path d="M369.6,294.36h1.74v6.14H369.6Z" fill="#2f2e41"/><path d="M378.79,294.36l-2.63,6.14h-1.71l-2.62-6.14h1.88l1.66,4,1.7-4Z" fill="#2f2e41"/><path d="M383.51,296.75v1.35l-4.28,1.6v-1.28l2.85-1-2.85-1v-1.29Z" fill="#2f2e41"/><rect x="619.74" y="61.98" width="21.24" height="15.33" fill="#8595a8"/><rect x="522.24" y="68.18" width="118.73" height="85.95" fill="#8595a8"/><rect x="522.24" y="68.18" width="118.73" height="85.95" fill="#fff" opacity="0.7" style="isolation:isolate"/><rect x="522.24" y="68.18" width="16.54" height="85.95" opacity="0.1" style="isolation:isolate"/><rect x="522.24" y="67.99" width="118.73" height="8.03" fill="#8595a8"/><circle cx="635.85" cy="65.9" r="1.67" fill="#fff"/><circle cx="630.04" cy="65.9" r="1.67" fill="#fff"/><circle cx="624.21" cy="65.9" r="1.67" fill="#fff"/><path d="M567.7,103.66a7.94,7.94,0,0,1,0,14.58,12.89,12.89,0,0,1-5.3,1h-3.93v5.89h-6.36V102.65H562.4A12.89,12.89,0,0,1,567.7,103.66ZM565,113.33a3.45,3.45,0,0,0,0-4.86,4.33,4.33,0,0,0-3-.87h-3.54v6.58H562A4.44,4.44,0,0,0,565,113.33Z" fill="#2f2e41"/><path d="M596.87,102.65v22.49H590.5v-8.78h-8.67v8.78h-6.36V102.65h6.36v8.44h8.67v-8.44Z" fill="#2f2e41"/><path d="M617,103.66a7.77,7.77,0,0,1,3.46,2.85,8,8,0,0,1,1.23,4.41A7.62,7.62,0,0,1,617,118.2a13,13,0,0,1-5.3,1h-3.93v5.88h-6.35V102.65h10.28A12.86,12.86,0,0,1,617,103.66Zm-2.73,9.67a3,3,0,0,0,1-2.42,3,3,0,0,0-1-2.44,4.4,4.4,0,0,0-3-.87h-3.53v6.58h3.53A4.45,4.45,0,0,0,614.22,113.33Z" fill="#2f2e41"/><rect x="313.7" y="430.51" width="299.12" height="12.35" fill="#a7a9ac"/><rect x="326.5" y="428.3" width="69.29" height="2.21" fill="#2f2e41"/><rect x="326.5" y="428.3" width="69.29" height="2.21" opacity="0.2"/><polygon points="602.09 627.59 595.42 627.59 561.38 442.86 577.66 442.86 602.09 627.59" fill="#bcbec0"/><polygon points="612.82 500.89 613.75 508.08 674.35 507.63 663.68 493.63 612.82 500.89" fill="#bcbec0"/><path d="M624.17,599.63H576.61L565.75,494.17s-5.68-24.81,29.21-30.5l73.15-12.92v49.62l-55.29.52Z" fill="#2f2e41"/><polygon points="624.68 514.07 636.57 599.63 682.58 599.63 673.79 514.07 624.68 514.07" fill="#2f2e41"/><path d="M644.36,599.63s-41.46,17.56-35.61,28H681l-2.88-28Z" fill="#8595a8"/><path d="M644.36,599.63s-41.46,17.56-35.61,28H681l-2.88-28Z" opacity="0.2"/><rect x="608.75" y="627.59" width="72.28" height="8.01" fill="#2f2e41"/><rect x="608.75" y="627.59" width="72.28" height="8.01" opacity="0.2"/><path d="M587.8,599.63S533.54,620.19,540,630H622l-3.26-30.33Z" fill="#8595a8"/><rect x="540.03" y="629.96" width="81.94" height="8.69" fill="#2f2e41"/><path d="M766.05,518.61l23.12,117.47a3.2,3.2,0,0,0,3.13,2.57h0a3.2,3.2,0,0,0,3.14-3.79L773.29,518.61Z" fill="#bcbec0"/><path d="M435.83,561.71l7.79,26s10.45-13.6,22.23-14.1L462,557.46Z" fill="#f9b499"/><path d="M430.35,632.13c-2.45-.37,4.59-3,9.58-4.77a7.27,7.27,0,0,0,4.8-6.18,126.64,126.64,0,0,1,2.87-16.31,9.85,9.85,0,0,0-1.07-7.26c-2.13-3.64-4.86-9.06-2.91-9.93,0,0,10.45-13.77,22.23-14.1l15.59,15.59s-12.94-4.64-20.57,6.64c0,0-1.88,1.88-5,10.77a77.52,77.52,0,0,0-3,11.63C451.87,623.83,447.64,634.74,430.35,632.13Z" fill="#8595a8"/><path d="M430.35,632.13s-2.66.38-1,2.81a5.13,5.13,0,0,0,2.15,1.73c4.34,1.9,19.67,7,24.14-14.32,0,0,7.22-38,29.95-27.37,0,0-.83-4.15-4.15-5.81,0,0-16-7.22-24.24,13.89a70.67,70.67,0,0,0-4.29,15.15S451.09,635.45,430.35,632.13Z" fill="#e6e7e8"/><path d="M438.31,638.59s29.2,7.81,34.67-4.8c0,0,12.28-26.69,12.73-36.77a2.87,2.87,0,0,0-1.87-2.82c-3.62-1.35-12.17-3.15-18.95,6.26a48.65,48.65,0,0,0-9.25,21.89S453.08,640.23,438.31,638.59Z" fill="#2f2e41"/><path d="M385.54,576.13l9,14.1s10.45-13.61,22.22-14.1l-6-10.29Z" fill="#f9b499"/><path d="M380.59,634.52c-2.45-.37,4.59-3,9.58-4.77a7.25,7.25,0,0,0,4.8-6.18,127.46,127.46,0,0,1,2.87-16.32,9.83,9.83,0,0,0-1.07-7.25c-2.12-3.64-4.86-9.06-2.91-9.93,0,0,10.74-13.57,22.31-14.31a1.2,1.2,0,0,1,.93.37l14.58,15.43s-12.94-4.64-20.57,6.64c0,0-1.87,1.88-5,10.77a77.52,77.52,0,0,0-3,11.63C402.12,626.22,397.89,637.14,380.59,634.52Z" fill="#8595a8"/><path d="M380.59,634.52s-2.66.38-1,2.81a5.13,5.13,0,0,0,2.15,1.73c4.34,1.9,19.67,7,24.15-14.32,0,0,7.21-38,29.94-27.37,0,0-.83-4.15-4.15-5.81,0,0-16-7.22-24.24,13.89a70.67,70.67,0,0,0-4.29,15.15S401.33,637.84,380.59,634.52Z" fill="#e6e7e8"/><path d="M388.56,641s29.19,7.81,34.66-4.8c0,0,12.28-26.69,12.73-36.77a2.87,2.87,0,0,0-1.87-2.82c-3.62-1.35-12.17-3.15-18.94,6.26a48.59,48.59,0,0,0-9.25,21.89S403.32,642.62,388.56,641Z" fill="#2f2e41"/><rect x="649.18" y="318.37" width="20.34" height="23.63" fill="#f9b499"/><ellipse cx="644.04" cy="318.37" rx="18.09" ry="13.71" transform="translate(300.39 949.29) rotate(-87.73)" fill="#f9b499"/><path d="M649.18,335a10.77,10.77,0,0,0,5.48-5.47s3.79,9.06-5.48,12.48Z" fill="#f7a48b"/><path d="M631.15,312.57s-19.83-10.65,1.92-21.12c0,0-6.44-2.21-3.82-3.62,0,0,24.36-21.55,34.23-4.43,0,0,29,7,19.74,26.18,0,0,2.82,3.29-1.81,8.79l-11.89,11.15a19.7,19.7,0,0,0-5-5.39,20,20,0,0,0-6.91-3.26c-6-.89-11.17-1.72-12.75-10.54-.46-2.59-3.59-3.86-6.17-3.3C636.36,307.54,633.62,309,631.15,312.57Z" fill="#2f2e41"/><ellipse cx="651.48" cy="316.5" rx="3.42" ry="4.83" fill="#f9b499"/><path d="M642.34,289s-7.92-1.74-4.37-7.41c0,0,18.26-12.52,25.51,1.78,0,0,17.65,3.62,21.11,15.6,0,0-4.94,2.57-6,4.86a7,7,0,0,1-1.72,2.48c-1.19,1-3,1.7-4.86-.36a7.1,7.1,0,0,1-1.31-2.2,4,4,0,0,0-3.58-2.86s-7.86,15-13.29,4.48c0,0-3-7.1-8.06-7.1,0,0-10.67,3.62-9.67-2C636.09,296.28,636.09,291.65,642.34,289Z" opacity="0.2"/><path d="M665.22,324.68s3.3-1.13,4.3-6.31c0,0,3.2,2.43,2.61,8.7l-2.61,2.45a17.94,17.94,0,0,0-1.95-2.61A19.56,19.56,0,0,0,665.22,324.68Z" opacity="0.2"/><path d="M93.05,336a15.65,15.65,0,0,0,8.39,5l5.43-14.38h-4.68S100,333.56,93.05,336Z" fill="#f9b499"/><path d="M193.45,552.77,216,549.69s.68,30.24,12.75,39.7c0,0-3,10.71-17,1.09,0,0-4.81-3.76-6.12-12.5,0,0,.32-10.07-4.31-15.65Z" fill="#f9b499"/><polygon points="193.45 552.99 216.86 559.89 216.02 549.91 193.45 552.99" fill="#f7a48b"/><path d="M146.39,394.18c-2.5,22.89,2.48,163.72,2.48,163.72-11.44,3.48-39.81,3-39.81,3-20.9-175.66-9.9-211-9.9-211L137.09,337c17.07,3.52,26.8,0,26.8,0l15.59,9.9,13.68,64.2,28.36,137.83-43.68,6c-5.78-14.69-30.66-156.19-31.43-160.61Z" fill="#2f2e41"/><path d="M221.52,548.93l-43.68,6c-5.78-14.69-30.66-156.19-31.43-160.61l30.25,120s7,23.81,21.86,27.32Z" opacity="0.2"/><path d="M137.08,337s15.67,3.43,26.81,0c0,0,6.1-62.49-8.71-95.47l-3.29-.32,3.29,9.66L129.42,252l-8.08-10.45a24,24,0,0,0-4.31-.06l17.25,31.57s5.28,7.37,4,28.69c0,0,1.6,7.07.21,21.14Z" fill="#e6e7e8"/><path d="M246.69,271.65s-37.73,50-49.8,42.8c0,0-13.09-7.61-16.17-12.67l2.82,49.37s-13.68,1.55-20.57,0c0,0,3.18-45.06,2.25-55.5l-13.28-54.31a47.57,47.57,0,0,1,15.19,1.9c1,.29,2,.62,3,1a40,40,0,0,1,21,17.08h0c4.82,4.92,9.27,10.43,11.92,15.91,0,0,23.36-19.76,28.49-23.35Z" fill="#8595a8"/><ellipse cx="148.23" cy="209.25" rx="17.98" ry="21.64" fill="#f9b499"/><path d="M107,243.2s-1.27-8.91,6.44-12.1a3,3,0,0,0,1.12-.79c1-1.21,2.72-4.35-.57-9.41,0,0-3.74-2.85,0-9a15.68,15.68,0,0,1,2.73-3.19c1-.93,2.17-3.22-.81-8.11,0,0-6.91-19.64,17.39-19.31,0,0,3.33-11.32,21-5,0,0,10.37,4.92,14.76,13.49a16.36,16.36,0,0,1,.62,13.35,52.16,52.16,0,0,0-3.18,13,22.68,22.68,0,0,0,.21,6.1,18.66,18.66,0,0,1-.43,8.68s7.45,4.87,3.13,13.19a44.12,44.12,0,0,0-17.39-2.73s-8.22-2.64-6.46-10.71c0,0,17.47,3,20.16-19A24.3,24.3,0,0,0,164,198.93a16.62,16.62,0,0,0-1.44-2.7s-2.38,7-19.36,5c0,0-2.13,7.61-13.81,6l-1.88,15.27s2.92,15.57-6.2,19.06C121.34,241.58,110.81,241,107,243.2Z" fill="#2f2e41"/><path d="M117,241.52s8-4.22,8.77-13.49a5.31,5.31,0,0,0-1.49-4.17c-1.92-2-4.58-5.94-1-10.81,0,0-1,7.17,4.28,9.47,0,0,3.25,14.58-6.2,19.06Z" opacity="0.2"/><path d="M130.25,207.25s.87-6.31-3.11-8.47c0,0-10.45-6.09-3.15-11.17,0,0,5.77-4.58,13.33,1.7a.42.42,0,0,0,.67-.46c-.93-2.65-1.34-7.34,6.24-9.31,0,0-3.48,3.15-1.86,5.54a.56.56,0,0,0,.77.15c1.92-1.28,10.2-6.19,16.18-.22,0,0,7.22,4.8,5.68,15.59a14.7,14.7,0,0,0-2.41-4.37s-3.27,7.5-19.36,5C143.23,201.26,140,209.41,130.25,207.25Z" opacity="0.2"/><path d="M127.54,222.52s2.71,15.44-6.2,19.06L129.42,252l25.76-1.17-3.29-9.66s-7.32-1.81-6.41-10.57a18.61,18.61,0,0,1-12.24-9.43S130.46,223.81,127.54,222.52Z" fill="#f9b499"/><path d="M134.28,222.89s1.26,14.4,12.1,13.72c0,0-1.28-2-.9-6C145.48,230.63,137,228.51,134.28,222.89Z" fill="#f7a48b"/><polygon points="121.34 241.58 131.12 248.87 155.18 250.87 129.42 252.03 121.34 241.58" fill="#f7a48b"/><path d="M172.09,260l6.47,5.14s-6,23.72-13.34,30.52l1.9-29.36L163,258l4.16-14.76c1,.29,2,.62,3,1l8.43,14.59Z" opacity="0.2"/><path d="M135.29,351.84l-36.13-2c1.08-8.73,10.71-30.29,10.71-30.29,3.35-11.3-7.7-33.11-7.7-33.11L87.8,299.05,93,306.74h0l9,13.45a5.88,5.88,0,0,1,.69,5.12c-2.85,8.51-8.92,10.95-13,11.59a7.54,7.54,0,0,1-6.53-2.22c-18.31-18.74-23-37.17-23-37.17C53.41,282.39,98,246.8,98,246.8l23.38,6.81c4.8,4.11,6.75,18,6.75,18l10.18,30.13C141,310.43,135.29,351.84,135.29,351.84Z" fill="#8595a8"/><path d="M102.67,325.32c-2.85,8.51-8.92,10.95-13,11.59a7.54,7.54,0,0,1-6.53-2.22s16.94-.73,16.07-13.82L93,306.75l9,13.45A5.88,5.88,0,0,1,102.67,325.32Z" opacity="0.2"/><polygon points="110.65 328.57 112.44 323.95 128.08 321.87 126.82 326.61 110.65 328.57" opacity="0.2"/><polygon points="173.42 322.92 173.42 326.61 182.25 328.57 182.06 325.22 173.42 322.92" opacity="0.2"/><path d="M87.8,299.05l-8-3.4s8.47.31,22.33-9.18Z" opacity="0.2"/><path d="M231.54,253.88c-13.45,13.63-29.52,36-29.52,36,.29-6-10.56-27.87-10.88-28.54,4.82,4.92,9.26,10.42,11.91,15.91C203.05,277.23,226.41,257.46,231.54,253.88Z" opacity="0.2"/><path d="M137.08,337s3.19-25.28,1.18-35.21c0,0,2.47-4.72,13.13-3.42a28.58,28.58,0,0,1,6.85,1.85,8.74,8.74,0,0,0,7-.09s.37,23-1.37,36.87A57,57,0,0,1,137.08,337Z" fill="#d1d3d4"/><path d="M136.47,560c-1.56,23.93-7.89,32.29-11.77,35.2a4.73,4.73,0,0,1-7.16-1.84,24.4,24.4,0,0,1-1.44-9.14c-.12-10.32,2.77-23.28,2.77-23.28Z" fill="#f9b499"/><path d="M136.47,605.65c-.74,11.32-34.39,4.69-34.39,4.69-5.47-2,14-26.16,14-26.16a24.4,24.4,0,0,0,1.44,9.14,4.73,4.73,0,0,0,7.16,1.84c3.88-2.91,10.21-11.27,11.77-35.2l2.76-.29C140.46,571.48,136.47,605.65,136.47,605.65Z" fill="#8595a8"/><path d="M193.45,552.77s-6.42.75-6.74,11.84l6.74,41.73h4.67L202.36,586s6.52,29.83,39.12,22.65c0,0,18.34-3.43,11.5-9.24a8.14,8.14,0,0,0-3-1.57c-4.33-1.28-17.89-5.42-21.16-8.42,0,0-1,5.21-10.44,3.58,0,0-10.43-1-12.06-16.3,0,0,0-11.08-4.89-14.34Z" fill="#8595a8"/><path d="M233.84,256.56s3.54-.21,9.11-7a9.82,9.82,0,0,1,10.22-2.16s7.12,1.15,6.81,4.29v2.21s5.56.3,2.15,4.33a4.08,4.08,0,0,1-2.16,4.33,3.71,3.71,0,0,1-3.13,4.41s-1,4.53-5.3,2.19a21.12,21.12,0,0,0-7,0Z" fill="#f9b499"/><path d="M483.13,384.56a13.64,13.64,0,0,1-9.49-7.53,5.92,5.92,0,0,1-.63-3.6s-3.09,2.48-.54,8c0,0,0,.07,0,0-1.09-1.4-7.3-10.3,4.16-16.51C476.59,365,475.32,379.61,483.13,384.56Z" fill="none" stroke="#000" stroke-miterlimit="10"/><path d="M455.17,348.55s.86-6.84,5.16-6.84h13.94l-10.18,14.43,25.27,4v87.14H440.8v-9S379,439.71,380.26,428c0,0-2.49-9.2,6.47-10.2l32.84-9.2S427,360.84,442,356.36C442,356.36,451.7,352.93,455.17,348.55Z" fill="#8595a8"/><path d="M380.26,428l.8,2.49H357.19a17,17,0,0,1,1.2-1.92c2-2.91,6.54-8.13,13.1-8.71l7.8-.49,3.46-.22S378.77,421.65,380.26,428Z" fill="#f9b499"/><path d="M380.26,428l.8,2.49H357.19a17,17,0,0,1,1.2-1.92s16.33.38,16.39,0,3.22-1.12,4.51-9.2l3.46-.22S378.77,421.65,380.26,428Z" fill="#f7a48b"/><path d="M440.8,438.22s10.24-2.48,11.68-42.72c0,0,.2,17.2,12.91,26.11v25.65H440.8Z" opacity="0.2"/><path d="M454.8,504.44c-19.28.85-40.6-3.45-40.6-3.45l17,70.18a1.59,1.59,0,0,1-1.56,2,152.39,152.39,0,0,0-45.32,6.38,4.18,4.18,0,0,1-5.32-3.17l-3.53-17.4-13.71-67.6c-8.56-33.1,31.61-39.06,31.61-39.06,39.05-5.94,47.44-7.44,47.44-7.44v2.43h14a204.34,204.34,0,0,0-2.37,22C451.27,491.83,454.8,504.44,454.8,504.44Z" fill="#2f2e41"/><path d="M414.2,501l17,70.18a1.59,1.59,0,0,1-1.56,2,152.39,152.39,0,0,0-45.32,6.38,4.18,4.18,0,0,1-5.32-3.17l-3.53-17.4c6.56-10.52,7.28-40.08,7.28-40.08-3.55-36.08,24.93-36.45,24.93-36.45,22.49.75,44.75-13.21,44.75-13.21v0c-1.16,22.61,2.37,35.22,2.37,35.22C435.52,505.29,414.2,501,414.2,501Z" opacity="0.2"/><path d="M430.51,568.33l48.69-2.17L472.58,511l2.76-13.81-20.54,7.3a186.74,186.74,0,0,1-33.46-2.23l1,32.41Z" fill="#2f2e41"/><path d="M556.58,520.9,582,644a3,3,0,0,0,2.89,2.35h0a2.94,2.94,0,0,0,2.88-3.51L563.88,520.9Z" fill="#bcbec0"/><path d="M462,529l23.22,119.27a3.06,3.06,0,0,0,3,2.48h0a3.07,3.07,0,0,0,3-3.64L468,523.77s-2.06-6.1-4.78-1.33c0,0-.06,2.08-4.16-1.1,0,0-1.12-2-13.61-2.12l-65.55-4.69s-5-2.31-10,3.36c0,0-3,4.17-2.31,13.63l-7.1,119.23h5.6l7.63-122.88s-.33-10,11.12-8.63l69.89,5.84S461.12,524.4,462,529Z" fill="#bcbec0"/><path d="M460.74,515.15h5.06a0,0,0,0,1,0,0v129a2.18,2.18,0,0,1-2.18,2.18h-.7a2.18,2.18,0,0,1-2.18-2.18v-129A0,0,0,0,1,460.74,515.15Z" transform="matrix(1, 0.08, -0.08, 1, 46.37, -34.14)" fill="#bcbec0"/><polygon points="332.76 627.59 339.43 627.59 373.46 442.86 357.19 442.86 332.76 627.59" fill="#bcbec0"/><path d="M670.4,514.07l24.75,127a3.18,3.18,0,0,0,3.13,2.57h0a3.19,3.19,0,0,0,3.13-3.79L678.14,514.07Z" fill="#bcbec0"/><path d="M585.46,527.86l-5.88,112.36a3.58,3.58,0,0,1-3.58,3.4h0a3.59,3.59,0,0,1-3.58-3.8l7.36-121.21s1.26-8.47,11.71-7.73l75.23,5.38s3.09,2.93,4.8,3.56l-77.78-4.47S586.17,514.47,585.46,527.86Z" fill="#bcbec0"/><path d="M647.28,454.43,644.63,419s-3.37,23-25.51,20l-47-3.83,3.17-26.55h38.86s8.09-58.93,31.08-62.81c0,0-.32-6.11,16.51-10.51,0,0,14.9-3.74,18.46,4,0,0,19.43,2.91,30.44,31.89v71.68l-42.53,7.89Z" fill="#8595a8"/><path d="M644.58,417.65l10-24.61s11.37,21.09,13.49,32.37c0,0-2.83,20.2-3.42,25.94l-17.41,3.08Z" opacity="0.2"/><polygon points="575.29 408.58 571.02 408.58 567.02 431.91 572.41 431.91 575.29 408.58" fill="#f9b499"/><ellipse cx="129.42" cy="215.07" rx="6.16" ry="7.82" fill="#f9b499"/><path d="M98,246.8s10.56-6.06,19.08-5.28l17.25,31.57s5.3,8.13,4,28.7c0,0-11.07-23.56-20-31.35l5.05-9.29-11.21,5.14Z" fill="#8595a8"/><path d="M98,246.8s10.56-6.06,19.08-5.28l17.25,31.57s5.3,8.13,4,28.7c0,0-11.07-23.56-20-31.35l5.05-9.29-11.21,5.14Z" fill="#fff" opacity="0.4"/><path d="M165.22,295.65s-8.89-36.35-13.33-54.45a57.11,57.11,0,0,1,15.42,1.42L173.42,258l-7.22.49,7.22,8.8S169.62,286.86,165.22,295.65Z" fill="#8595a8"/><path d="M165.22,295.65s-8.89-36.35-13.33-54.45a57.11,57.11,0,0,1,15.42,1.42L173.42,258l-7.22.49,7.22,8.8S169.62,286.86,165.22,295.65Z" fill="#fff" opacity="0.4"/><rect x="227.77" y="234.31" width="90.32" height="1.16" transform="translate(-76.8 320.65) rotate(-54.49)" fill="#2f2e41"/><path d="M253.54,252.69l5.21,4.92a.84.84,0,0,0,1.27-.13c.48-.68.24-2.81-.92-4.53" fill="#f9b499"/><path d="M253.54,252.69a41.12,41.12,0,0,1,5.22,4.24c.69.88,1.12.33,1.09-.82a8.88,8.88,0,0,0-.75-3.16,5.69,5.69,0,0,1,1.52,3.09,3.25,3.25,0,0,1,0,.94,1.59,1.59,0,0,1-.49,1,1.3,1.3,0,0,1-1.24.25,1.22,1.22,0,0,1-.54-.32l-.31-.28A39.67,39.67,0,0,1,253.54,252.69Z" fill="#f7a48b"/><path d="M239.44,263.31s8.29.49,10.78-3.82c0,0,1.56-2.16,5.54.83a20.66,20.66,0,0,0-2.22,3.33s-1.1,1.31-2.22,2.76l-1.47,2.51a21.62,21.62,0,0,0-5.3.22Z" fill="#f7a48b"/><line x1="259.98" y1="262.54" x2="253.81" y2="259.98" fill="#f9b499"/><path d="M260,262.54a8.85,8.85,0,0,1-3.31-.74,9,9,0,0,1-2.86-1.82,8.71,8.71,0,0,1,3.31.75A8.92,8.92,0,0,1,260,262.54Z" fill="#f7a48b"/><line x1="256.85" y1="266.95" x2="250.01" y2="262.9" fill="#f9b499"/><path d="M256.85,267A13.86,13.86,0,0,1,250,262.9a13.94,13.94,0,0,1,6.84,4.05Z" fill="#f7a48b"/><ellipse cx="129.42" cy="215.07" rx="2.07" ry="3.2" fill="#f7a48b"/><path d="M702.46,371.22l97.61-.45a6.36,6.36,0,0,1,4.19,1.44,5.73,5.73,0,0,1,2,3.43s1.86,4.85-7.84,5.6c0,0-11.57,1.12-16,19.78,0,0-16.42,59.34-10.45,93.68,0,0,1.49,8.58,11.2,16.79,0,0,5.47,4.1,4,7.84,0,0,2.49,3.23-13.44,2.48l-91-.2-8.23-14-6.24-23.38,2.26-50.76S670.36,386.08,702.46,371.22Z" fill="#bcbec0"/><ellipse cx="460.33" cy="314.67" rx="22.6" ry="15.04" transform="matrix(0.14, -0.99, 0.99, 0.14, 82.78, 725.01)" fill="#f9b499"/><rect x="460.33" y="326.28" width="17.63" height="15.43" fill="#f9b499"/><path d="M469.15,331.33a14.38,14.38,0,0,1-4.51,10.38h-4.31V337S466.54,335.21,469.15,331.33Z" fill="#f7a48b"/><path d="M523.11,373.22s-24.71,15.06-40,11.34h0a13.64,13.64,0,0,1-9.49-7.53,5.92,5.92,0,0,1-.63-3.6s-3.17,2.55-.43,8.25c0,0-12.67-3.67-13.22-14.12A13.51,13.51,0,0,1,462,359l4.85-6.73,7.4-10.57s3.41-5.71-2.52-14.27c0,0-8.47-13.85-9.74-19.34,0,0-9.95-4.67-11.43-8.88,0,0-3.3,4.68-4.22,9,0,0-6.12-7.92-1.89-14.05,0,0,1-2.75,6.29-4a27.23,27.23,0,0,1,6.81-.63,19,19,0,0,0,8.87-1.7s12.9-8.45,19.46,6.13c0,0,14.08-2.19,15.34,14.22a29.16,29.16,0,0,1-.66,8.48A25.85,25.85,0,0,0,507,340.25a49.51,49.51,0,0,1,9.42,10.09C520.58,356.14,524.22,364.1,523.11,373.22Z" fill="#2f2e41"/><path d="M516.46,350.34a159.61,159.61,0,0,1-17.67-13.9c-6.82-5.54-2.85-22.35-1.74-26.53a8.49,8.49,0,0,0,.27-2.35c-.16-6.51-2.9-9-5.63-9.92a6.3,6.3,0,0,0-6.9,2.3,4.91,4.91,0,0,1-5.86,1.83c.45-.39.84-.77,1.2-1.13a5.73,5.73,0,0,0-2.48-9.61,18.6,18.6,0,0,0-8.87.16,26.32,26.32,0,0,1-18-1.05,27.23,27.23,0,0,1,6.81-.63,19,19,0,0,0,8.87-1.7s12.9-8.45,19.46,6.13c0,0,14.08-2.19,15.34,14.22a29.16,29.16,0,0,1-.66,8.48A25.85,25.85,0,0,0,507,340.25,49.51,49.51,0,0,1,516.46,350.34Z" opacity="0.2"/><ellipse cx="465.39" cy="317.31" rx="3.38" ry="4.76" fill="#f9b499"/><path d="M704.46,376.61a8.7,8.7,0,0,1-5.51,5,9.81,9.81,0,0,1-2.63.51c-2.3.19-8.39,1.74-13.24,12.22,0,0-6.41,10.68-11.72,54.19,0,0-4,41.85,2.66,54.79L684.82,514a4.52,4.52,0,0,1,.58,5.76h0a4.52,4.52,0,0,1-6.67.93l-4.66-3.92s1.28,7.83-7.35-.46l-78.92-5.64s-8.54,2.18-9,13.27c0,0-7.52,1.56-6.62-8,0,0,3.37-13.94,15.61-15.6l80.31,6s-6.37-1.33-5-37.82c0,0,3.65-49.1,11.61-72.32,0,0,3.65-16.59,16.09-22.23,0,0,10.71-5.88,13.57-.36A3.76,3.76,0,0,1,704.46,376.61Z" fill="#d1d3d4"/><path d="M666.58,635.52l6.51-107.66,5.06,26-5.69,82.07a2.94,2.94,0,0,1-2.94,2.74h0A3,3,0,0,1,666.58,635.52Z" fill="#bcbec0"/><path d="M474.28,525.07,575.9,526.3s1.33-1.19,1.4-4.25a10.44,10.44,0,0,0-4.27-8.49c-4.12-3.09-11.26-10.55-11.58-25.3,0,0,4.51-68.19,12.19-89,0,0,2.26-16.26,19.87-18.06,0,0,5.86-1.88,3.42-6.58a7.55,7.55,0,0,0-6.73-3.9H489.36s-25,14.37-26.1,40.27-10.65,34.77-6.58,81.29A46,46,0,0,0,474.28,525.07Z" fill="#bcbec0"/><path d="M494.16,374.77s2.15,5.88-6.47,7.8c0,0-11.95.95-17.91,19.4,0,0-10.19,34.49-11.15,70.89,0,0-1.94,33.16,14,44a6,6,0,0,1,1.77,8.06l-.09.15s-2.88,4.07-7.19-2.63c0,0-1.91-3.36-3.83,0,0,0-.31,3.11-4.71-.72,0,0-3.19-2.16-11.82-1.92l-66.79-5.27a8.91,8.91,0,0,0-10,3.36s-3.64,12-9.12,6.54c0,0-2.86-3.73,3.36-12.32,0,0,5.6-9,15.73-7.46l76.71,4.23s-7.51-11.53-3.55-46.7c0,0,2.28-37.95,11.88-66.42A43.25,43.25,0,0,1,479.76,375C485.39,370.77,491.64,368.17,494.16,374.77Z" fill="#d1d3d4"/><polygon points="322.69 390.94 323.06 392.88 361.87 392.88 361.29 390.94 322.69 390.94" fill="#8595a8"/><polygon points="323.77 394.84 324.18 396.78 367.93 396.78 367.49 394.84 323.77 394.84" fill="#8595a8"/><polygon points="324.38 398.24 324.81 400.18 363.63 400.18 363.18 398.24 324.38 398.24" fill="#8595a8"/><polygon points="325.25 402.14 325.67 404.08 369.53 404.08 369.1 402.14 325.25 402.14" fill="#8595a8"/><polygon points="326.16 406.2 326.59 408.14 353.57 408.14 353.17 406.2 326.16 406.2" fill="#8595a8"/><polygon points="327.03 410.1 327.47 412.04 357.63 412.04 357.18 410.1 327.03 410.1" fill="#8595a8"/><polygon points="327.9 413.98 328.35 415.92 367.15 415.92 366.72 413.98 327.9 413.98" fill="#8595a8"/><polygon points="328.77 417.85 329.21 419.79 372.99 419.81 372.56 417.87 328.77 417.85" fill="#8595a8"/></svg>