<?xml version="1.0" encoding="UTF-8" standalone="no"?>
<!-- Generator: Adobe Illustrator 19.0.0, SVG Export Plug-In . SVG Version: 6.00 Build 0)  -->

<svg
   version="1.1"
   id="Layer_1"
   x="0px"
   y="0px"
   viewBox="0 0 310 310"
   style="enable-background:new 0 0 310 310;"
   xml:space="preserve"
   sodipodi:docname="youtube-svgrepo-com-light.svg"
   inkscape:version="1.1.1 (3bf5ae0d25, 2021-09-20)"
   xmlns:inkscape="http://www.inkscape.org/namespaces/inkscape"
   xmlns:sodipodi="http://sodipodi.sourceforge.net/DTD/sodipodi-0.dtd"
   xmlns="http://www.w3.org/2000/svg"
   xmlns:svg="http://www.w3.org/2000/svg"><defs
   id="defs37" /><sodipodi:namedview
   id="namedview35"
   pagecolor="#505050"
   bordercolor="#eeeeee"
   borderopacity="1"
   inkscape:pageshadow="0"
   inkscape:pageopacity="0"
   inkscape:pagecheckerboard="0"
   showgrid="false"
   inkscape:zoom="1.5419355"
   inkscape:cx="154.67573"
   inkscape:cy="155"
   inkscape:window-width="1920"
   inkscape:window-height="1147"
   inkscape:window-x="-8"
   inkscape:window-y="-8"
   inkscape:window-maximized="1"
   inkscape:current-layer="Layer_1" />
<g
   id="XMLID_822_"
   style="fill:#ffffff">
	<path
   id="XMLID_823_"
   d="M 297.917,64.645 C 286.727,51.343 266.067,45.917 226.611,45.917 H 83.386 c -40.359,0 -61.369,5.776 -72.517,19.938 C 0,79.663 0,100.008 0,128.166 v 53.669 c 0,54.551 12.896,82.248 83.386,82.248 h 143.226 c 34.216,0 53.176,-4.788 65.442,-16.527 C 304.633,235.518 310,215.863 310,181.835 v -53.669 c 0,-29.695 -0.841,-50.16 -12.083,-63.521 z m -98.896,97.765 -65.038,33.991 c -1.454,0.76 -3.044,1.137 -4.632,1.137 -1.798,0 -3.592,-0.484 -5.181,-1.446 -2.992,-1.813 -4.819,-5.056 -4.819,-8.554 v -67.764 c 0,-3.492 1.822,-6.732 4.808,-8.546 2.987,-1.814 6.702,-1.938 9.801,-0.328 l 65.038,33.772 c 3.309,1.718 5.387,5.134 5.392,8.861 0.004,3.73 -2.065,7.151 -5.369,8.877 z"
   style="fill:#ffffff" />
</g>
<g
   id="g4">
</g>
<g
   id="g6">
</g>
<g
   id="g8">
</g>
<g
   id="g10">
</g>
<g
   id="g12">
</g>
<g
   id="g14">
</g>
<g
   id="g16">
</g>
<g
   id="g18">
</g>
<g
   id="g20">
</g>
<g
   id="g22">
</g>
<g
   id="g24">
</g>
<g
   id="g26">
</g>
<g
   id="g28">
</g>
<g
   id="g30">
</g>
<g
   id="g32">
</g>
</svg>
